<svg width="1.2rem" height="1.2rem" viewBox="0 0 60 60" fill="none" xmlns="http://www.w3.org/2000/svg">
  <path d="M25 11H6C4.89543 11 4 11.8954 4 13V20C4 22.2091 5.79086 24 8 24H29V15C29 12.7909 27.2091 11 25 11Z" fill="#0EC4BA"/>
  <path d="M54 11H35C32.7909 11 31 12.7909 31 15V24H52C54.2091 24 56 22.2091 56 20V13C56 11.8954 55.1046 11 54 11Z" fill="#0EC4BA"/>
  <path d="M29 26H19C17.8954 26 17 26.8954 17 28V45C17 47.2091 18.7909 49 21 49H27C28.1046 49 29 48.1046 29 47V26Z" fill="#E4E4E7"/>
  <path d="M41 26H31V47C31 48.1046 31.8954 49 33 49H39C41.2091 49 43 47.2091 43 45V28C43 26.8954 42.1046 26 41 26Z" fill="#E4E4E7"/>
</svg>
